<mxfile host="drawio-plugin" modified="2023-12-31T08:41:04.253Z" agent="5.0 (Windows NT 6.2; Win64; x64) AppleWebKit/537.36 (KHTML, like Gecko) Chrome/104.0.5112.102 Safari/537.36" version="20.5.3" etag="_04QmXzmCGlvJShRcZKY" type="embed"><diagram id="3nXBNAANXP34OddxdDk6" name="Page-1"><mxGraphModel dx="648" dy="563" grid="1" gridSize="10" guides="1" tooltips="1" connect="1" arrows="1" fold="1" page="1" pageScale="1" pageWidth="850" pageHeight="1100" math="0" shadow="0"><root><mxCell id="0"/><mxCell id="1" parent="0"/><mxCell id="2" value="&lt;font style=&quot;font-size: 17px;&quot;&gt;Waiter&lt;/font&gt;" style="rounded=0;whiteSpace=wrap;html=1;fillColor=#4D4D4D;align=center;strokeColor=#B3B3B3;" vertex="1" parent="1"><mxGeometry x="200" y="30" width="265" height="50" as="geometry"/></mxCell><mxCell id="3" value="I" style="ellipse;whiteSpace=wrap;html=1;aspect=fixed;strokeColor=#B3B3B3;strokeWidth=0;fontSize=25;fontColor=#000000;fillColor=#00CC00;" vertex="1" parent="1"><mxGeometry x="210" y="35" width="40" height="40" as="geometry"/></mxCell><mxCell id="4" value="&lt;font style=&quot;font-size: 17px;&quot;&gt;WairerImpl&lt;/font&gt;" style="rounded=0;whiteSpace=wrap;html=1;fillColor=#4D4D4D;align=center;strokeColor=#B3B3B3;" vertex="1" parent="1"><mxGeometry x="10" y="130" width="265" height="50" as="geometry"/></mxCell><mxCell id="5" value="K" style="ellipse;whiteSpace=wrap;html=1;aspect=fixed;strokeColor=#B3B3B3;strokeWidth=0;fontSize=25;fontColor=#000000;fillColor=#3399FF;" vertex="1" parent="1"><mxGeometry x="20" y="135" width="40" height="40" as="geometry"/></mxCell><mxCell id="6" value="&lt;font style=&quot;font-size: 17px;&quot;&gt;Client&lt;/font&gt;" style="rounded=0;whiteSpace=wrap;html=1;fillColor=#4D4D4D;align=center;strokeColor=#B3B3B3;" vertex="1" parent="1"><mxGeometry x="360" y="290" width="265" height="50" as="geometry"/></mxCell><mxCell id="7" value="K" style="ellipse;whiteSpace=wrap;html=1;aspect=fixed;strokeColor=#B3B3B3;strokeWidth=0;fontSize=25;fontColor=#000000;fillColor=#3399FF;" vertex="1" parent="1"><mxGeometry x="370" y="295" width="40" height="40" as="geometry"/></mxCell><mxCell id="8" value="&lt;font style=&quot;font-size: 17px;&quot;&gt;Restautant&lt;/font&gt;" style="rounded=0;whiteSpace=wrap;html=1;fillColor=#4D4D4D;align=center;strokeColor=#B3B3B3;" vertex="1" parent="1"><mxGeometry x="50" y="290" width="265" height="50" as="geometry"/></mxCell><mxCell id="9" value="K" style="ellipse;whiteSpace=wrap;html=1;aspect=fixed;strokeColor=#B3B3B3;strokeWidth=0;fontSize=25;fontColor=#000000;fillColor=#3399FF;" vertex="1" parent="1"><mxGeometry x="60" y="295" width="40" height="40" as="geometry"/></mxCell><mxCell id="10" value="" style="endArrow=block;dashed=1;endFill=0;endSize=12;html=1;rounded=0;exitX=0.415;exitY=0;exitDx=0;exitDy=0;exitPerimeter=0;" edge="1" parent="1" source="4"><mxGeometry width="160" relative="1" as="geometry"><mxPoint x="40" y="54.5" as="sourcePoint"/><mxPoint x="200" y="54.5" as="targetPoint"/></mxGeometry></mxCell></root></mxGraphModel></diagram></mxfile>